# xmcd
#
# Track frame offsets:
#	150
#	4259
#	21823
#	35661
#	54229
#	69388
#	87053
#	109014
#	125233
#	141279
#	157954
#	175009
#	204513
#	219991
#	237816
#
# Disc length: 3412 seconds
#
# Revision: 9
# Processed by: cddbd v1.5.2PL0 Copyright (c) Steve Scherf et al.
# Submitted via: Jack! The Knife 20 Magnifico
#
DISCID=c40d520f
DTITLE=Raven - Walk Through Fire
DYEAR=2009
DGENRE=Metal
TTITLE0=Intro
TTITLE1=Against The Grain
TTITLE2=Breaking You Down
TTITLE3=Under Your Radar
TTITLE4=Walk Through Fire
TTITLE5=Bulldozer
TTITLE6=Long Day's Journey
TTITLE7=Trainwreck
TTITLE8=Grip
TTITLE9=Running Around In Circles
TTITLE10=Hard Road
TTITLE11=Armageddon
TTITLE12=Attitude
TTITLE13=Necessary Evil
TTITLE14=Space Station #5
EXTD=Raven
EXTT0=Gallagher, Hasselvander, Gallagher
EXTT1=Gallagher, Hasselvander, Gallagher
EXTT2=Gallagher, Hasselvander, Gallagher
EXTT3=Gallagher, Hasselvander, Gallagher
EXTT4=Gallagher, Hasselvander, Gallagher
EXTT5=Gallagher, Hasselvander, Gallagher
EXTT6=Gallagher, Hasselvander, Gallagher
EXTT7=Gallagher, Hasselvander, Gallagher
EXTT8=Gallagher, Hasselvander, Gallagher
EXTT9=Gallagher, Hasselvander, Gallagher
EXTT10=Gallagher, Hasselvander, Gallagher
EXTT11=Gallagher, Hasselvander, Gallagher
EXTT12=Gallagher, Hasselvander, Gallagher
EXTT13=Gallagher, Hasselvander, Gallagher
EXTT14=
PLAYORDER=
